<mxfile host="app.diagrams.net" modified="2023-03-02T22:34:19.361Z" agent="5.0 (X11; Linux x86_64) AppleWebKit/537.36 (KHTML, like Gecko) Chrome/108.0.0.0 Safari/537.36" etag="mDfRDZRgEnHNq2Vh-3rF" version="20.8.20" type="github">
  <diagram name="Page-1" id="PtQWVpbONN_IYpuJr706">
    <mxGraphModel dx="2610" dy="1994" grid="1" gridSize="10" guides="1" tooltips="1" connect="1" arrows="1" fold="1" page="1" pageScale="1" pageWidth="850" pageHeight="1100" math="0" shadow="0">
      <root>
        <mxCell id="0" />
        <mxCell id="1" parent="0" />
        <mxCell id="Wpa-RsL2ljYjHo5LuCvC-8" style="edgeStyle=orthogonalEdgeStyle;rounded=0;orthogonalLoop=1;jettySize=auto;html=1;fontSize=14;fontStyle=1" edge="1" parent="1" source="Wpa-RsL2ljYjHo5LuCvC-1" target="Wpa-RsL2ljYjHo5LuCvC-6">
          <mxGeometry relative="1" as="geometry" />
        </mxCell>
        <mxCell id="Wpa-RsL2ljYjHo5LuCvC-1" value="IR Remote Controller" style="shape=image;html=1;verticalAlign=top;verticalLabelPosition=bottom;labelBackgroundColor=#ffffff;imageAspect=0;aspect=fixed;image=https://cdn0.iconfinder.com/data/icons/electronics-line-style/64/Remote-128.png;rotation=0;imageBorder=default;fontSize=14;fontStyle=1" vertex="1" parent="1">
          <mxGeometry y="200" width="128" height="128" as="geometry" />
        </mxCell>
        <mxCell id="Wpa-RsL2ljYjHo5LuCvC-22" style="edgeStyle=orthogonalEdgeStyle;rounded=0;orthogonalLoop=1;jettySize=auto;html=1;exitX=1;exitY=0.75;exitDx=0;exitDy=0;entryX=0.5;entryY=0;entryDx=0;entryDy=0;fontSize=14;fontStyle=1" edge="1" parent="1" source="Wpa-RsL2ljYjHo5LuCvC-4" target="Wpa-RsL2ljYjHo5LuCvC-24">
          <mxGeometry relative="1" as="geometry">
            <mxPoint x="665" y="296" as="sourcePoint" />
            <mxPoint x="732" y="422" as="targetPoint" />
            <Array as="points">
              <mxPoint x="733" y="296" />
            </Array>
          </mxGeometry>
        </mxCell>
        <mxCell id="Wpa-RsL2ljYjHo5LuCvC-4" value="Arduino Uno" style="shape=image;html=1;verticalAlign=top;verticalLabelPosition=bottom;labelBackgroundColor=#ffffff;imageAspect=0;aspect=fixed;image=https://cdn2.iconfinder.com/data/icons/electronic-13/480/3-electronic-arduino-chipset-icon-2-128.png;imageBorder=default;fontSize=14;fontStyle=1" vertex="1" parent="1">
          <mxGeometry x="590" y="200" width="128" height="128" as="geometry" />
        </mxCell>
        <mxCell id="Wpa-RsL2ljYjHo5LuCvC-10" style="edgeStyle=orthogonalEdgeStyle;rounded=0;orthogonalLoop=1;jettySize=auto;html=1;exitX=1;exitY=0.5;exitDx=0;exitDy=0;entryX=0;entryY=0.5;entryDx=0;entryDy=0;fontSize=14;fontStyle=1" edge="1" parent="1" source="Wpa-RsL2ljYjHo5LuCvC-6" target="Wpa-RsL2ljYjHo5LuCvC-4">
          <mxGeometry relative="1" as="geometry" />
        </mxCell>
        <mxCell id="Wpa-RsL2ljYjHo5LuCvC-6" value="IR Reciever" style="shape=image;html=1;verticalAlign=top;verticalLabelPosition=bottom;labelBackgroundColor=#ffffff;imageAspect=0;aspect=fixed;image=https://cdn2.iconfinder.com/data/icons/electronic-13/480/6-electronic-led-icon-2-128.png;imageBorder=default;fontSize=14;fontStyle=1" vertex="1" parent="1">
          <mxGeometry x="300" y="200" width="128" height="128" as="geometry" />
        </mxCell>
        <mxCell id="Wpa-RsL2ljYjHo5LuCvC-11" value="Signal Gets decoded" style="text;html=1;align=center;verticalAlign=middle;resizable=0;points=[];autosize=1;strokeColor=none;fillColor=none;fontSize=14;fontStyle=1" vertex="1" parent="1">
          <mxGeometry x="428" y="235" width="160" height="30" as="geometry" />
        </mxCell>
        <mxCell id="Wpa-RsL2ljYjHo5LuCvC-13" value="" style="sketch=0;pointerEvents=1;shadow=0;dashed=0;html=1;strokeColor=none;fillColor=#434445;aspect=fixed;labelPosition=center;verticalLabelPosition=bottom;verticalAlign=top;align=center;outlineConnect=0;shape=mxgraph.vvd.memory;fontSize=14;fontStyle=1" vertex="1" parent="1">
          <mxGeometry x="601.37" y="10" width="105.26" height="40" as="geometry" />
        </mxCell>
        <mxCell id="Wpa-RsL2ljYjHo5LuCvC-16" value="Send Command" style="text;html=1;align=center;verticalAlign=middle;resizable=0;points=[];autosize=1;strokeColor=none;fillColor=none;rotation=-90;fontSize=14;fontStyle=1" vertex="1" parent="1">
          <mxGeometry x="976" y="361" width="130" height="30" as="geometry" />
        </mxCell>
        <mxCell id="Wpa-RsL2ljYjHo5LuCvC-26" style="edgeStyle=orthogonalEdgeStyle;rounded=0;orthogonalLoop=1;jettySize=auto;html=1;fontSize=14;fontStyle=1" edge="1" parent="1" source="Wpa-RsL2ljYjHo5LuCvC-24" target="Wpa-RsL2ljYjHo5LuCvC-25">
          <mxGeometry relative="1" as="geometry" />
        </mxCell>
        <mxCell id="Wpa-RsL2ljYjHo5LuCvC-24" value="IR Transmitter" style="shape=image;html=1;verticalAlign=top;verticalLabelPosition=bottom;labelBackgroundColor=#ffffff;imageAspect=0;aspect=fixed;image=https://cdn2.iconfinder.com/data/icons/electronic-13/480/6-electronic-led-icon-2-128.png;imageBorder=default;fontSize=14;fontStyle=1" vertex="1" parent="1">
          <mxGeometry x="669" y="470" width="128" height="128" as="geometry" />
        </mxCell>
        <mxCell id="Wpa-RsL2ljYjHo5LuCvC-25" value="IR Controlled Device" style="sketch=0;pointerEvents=1;shadow=0;dashed=0;html=1;strokeColor=none;fillColor=#505050;labelPosition=center;verticalLabelPosition=bottom;verticalAlign=top;outlineConnect=0;align=center;shape=mxgraph.office.devices.tv;fontSize=14;fontStyle=1" vertex="1" parent="1">
          <mxGeometry x="279" y="484" width="110" height="100" as="geometry" />
        </mxCell>
        <mxCell id="Wpa-RsL2ljYjHo5LuCvC-27" value="Transmits IR Signal" style="text;html=1;align=center;verticalAlign=middle;resizable=0;points=[];autosize=1;strokeColor=none;fillColor=none;fontSize=14;fontStyle=1" vertex="1" parent="1">
          <mxGeometry x="470" y="500" width="150" height="30" as="geometry" />
        </mxCell>
        <mxCell id="Wpa-RsL2ljYjHo5LuCvC-30" value="Receives IR Signal" style="text;html=1;align=center;verticalAlign=middle;resizable=0;points=[];autosize=1;strokeColor=none;fillColor=none;fontSize=14;fontStyle=1" vertex="1" parent="1">
          <mxGeometry x="140" y="235" width="150" height="30" as="geometry" />
        </mxCell>
        <mxCell id="Wpa-RsL2ljYjHo5LuCvC-36" value="&lt;font style=&quot;font-size: 14px;&quot;&gt;User&lt;/font&gt;" style="fillColor=#333333;verticalLabelPosition=bottom;sketch=0;html=1;strokeColor=#ffffff;verticalAlign=top;align=center;points=[[0.145,0.145,0],[0.5,0,0],[0.855,0.145,0],[1,0.5,0],[0.855,0.855,0],[0.5,1,0],[0.145,0.855,0],[0,0.5,0]];pointerEvents=1;shape=mxgraph.cisco_safe.compositeIcon;bgIcon=ellipse;resIcon=mxgraph.cisco_safe.capability.user;fontSize=14;fontStyle=1" vertex="1" parent="1">
          <mxGeometry x="976" y="436" width="100" height="100" as="geometry" />
        </mxCell>
        <mxCell id="Wpa-RsL2ljYjHo5LuCvC-54" value="Memory" style="text;html=1;align=center;verticalAlign=middle;resizable=0;points=[];autosize=1;strokeColor=none;fillColor=none;fontSize=14;fontStyle=1" vertex="1" parent="1">
          <mxGeometry x="610" y="-20" width="80" height="30" as="geometry" />
        </mxCell>
        <mxCell id="Wpa-RsL2ljYjHo5LuCvC-60" value="" style="group;fontSize=14;fontStyle=1" vertex="1" connectable="0" parent="1">
          <mxGeometry x="816" y="210" width="90" height="83" as="geometry" />
        </mxCell>
        <mxCell id="Wpa-RsL2ljYjHo5LuCvC-57" value="" style="html=1;verticalLabelPosition=bottom;align=center;labelBackgroundColor=#ffffff;verticalAlign=top;strokeWidth=2;strokeColor=#333333;shadow=0;dashed=0;shape=mxgraph.ios7.icons.wifi;pointerEvents=1;fontSize=14;fillColor=#333333;movable=1;resizable=1;rotatable=1;deletable=1;editable=1;locked=0;connectable=1;fontStyle=1" vertex="1" parent="Wpa-RsL2ljYjHo5LuCvC-60">
          <mxGeometry x="20" y="18" width="50" height="30" as="geometry" />
        </mxCell>
        <mxCell id="Wpa-RsL2ljYjHo5LuCvC-58" value="" style="rounded=1;whiteSpace=wrap;html=1;strokeColor=#333333;fontSize=14;fillColor=none;movable=1;resizable=1;rotatable=1;deletable=1;editable=1;locked=0;connectable=1;fontStyle=1" vertex="1" parent="Wpa-RsL2ljYjHo5LuCvC-60">
          <mxGeometry width="90" height="83" as="geometry" />
        </mxCell>
        <mxCell id="Wpa-RsL2ljYjHo5LuCvC-59" value="&lt;span id=&quot;docs-internal-guid-68e5acaf-7fff-2402-3c45-6078d69f52d8&quot; style=&quot;font-size: 14px;&quot;&gt;&lt;/span&gt;&lt;span id=&quot;docs-internal-guid-68e5acaf-7fff-2402-3c45-6078d69f52d8&quot; style=&quot;font-size: 14px;&quot;&gt;&lt;/span&gt;ESP8266&lt;br style=&quot;font-size: 14px;&quot;&gt;" style="text;html=1;align=center;verticalAlign=middle;resizable=1;points=[];autosize=1;strokeColor=none;fillColor=none;fontSize=14;movable=1;rotatable=1;deletable=1;editable=1;locked=0;connectable=1;fontStyle=1" vertex="1" parent="Wpa-RsL2ljYjHo5LuCvC-60">
          <mxGeometry x="5" y="51" width="80" height="30" as="geometry" />
        </mxCell>
        <mxCell id="Wpa-RsL2ljYjHo5LuCvC-65" value="" style="endArrow=classic;startArrow=classic;html=1;rounded=0;fontSize=14;exitX=0.5;exitY=0;exitDx=0;exitDy=0;fontStyle=1" edge="1" parent="1" source="Wpa-RsL2ljYjHo5LuCvC-4" target="Wpa-RsL2ljYjHo5LuCvC-13">
          <mxGeometry width="50" height="50" relative="1" as="geometry">
            <mxPoint x="860" y="260" as="sourcePoint" />
            <mxPoint x="910" y="210" as="targetPoint" />
          </mxGeometry>
        </mxCell>
        <mxCell id="Wpa-RsL2ljYjHo5LuCvC-66" value="Retrives&amp;nbsp; Signal" style="text;html=1;align=center;verticalAlign=middle;resizable=0;points=[];autosize=1;strokeColor=none;fillColor=none;rotation=90;fontSize=14;fontStyle=1" vertex="1" parent="1">
          <mxGeometry x="610" y="110" width="130" height="30" as="geometry" />
        </mxCell>
        <mxCell id="Wpa-RsL2ljYjHo5LuCvC-67" value="Encodes IR&amp;nbsp; Signal" style="text;html=1;align=center;verticalAlign=middle;resizable=0;points=[];autosize=1;strokeColor=none;fillColor=none;rotation=90;fontSize=14;fontStyle=1" vertex="1" parent="1">
          <mxGeometry x="675" y="361" width="150" height="30" as="geometry" />
        </mxCell>
        <mxCell id="Wpa-RsL2ljYjHo5LuCvC-68" style="edgeStyle=orthogonalEdgeStyle;rounded=0;orthogonalLoop=1;jettySize=auto;html=1;entryX=1.012;entryY=0.398;entryDx=0;entryDy=0;entryPerimeter=0;fontSize=14;fontStyle=1" edge="1" parent="1" source="Wpa-RsL2ljYjHo5LuCvC-58" target="Wpa-RsL2ljYjHo5LuCvC-4">
          <mxGeometry relative="1" as="geometry" />
        </mxCell>
        <mxCell id="Wpa-RsL2ljYjHo5LuCvC-69" value="&lt;font style=&quot;font-size: 14px;&quot;&gt;Command&lt;/font&gt;" style="text;html=1;align=center;verticalAlign=middle;resizable=0;points=[];autosize=1;strokeColor=none;fillColor=none;fontSize=14;fontStyle=1" vertex="1" parent="1">
          <mxGeometry x="726" y="220" width="90" height="30" as="geometry" />
        </mxCell>
        <mxCell id="Wpa-RsL2ljYjHo5LuCvC-75" value="" style="group;fontSize=14;fontStyle=1" vertex="1" connectable="0" parent="1">
          <mxGeometry x="964" y="188" width="128" height="162" as="geometry" />
        </mxCell>
        <mxCell id="Wpa-RsL2ljYjHo5LuCvC-34" value="" style="shape=image;html=1;verticalAlign=top;verticalLabelPosition=bottom;labelBackgroundColor=#ffffff;imageAspect=0;aspect=fixed;image=https://cdn4.iconfinder.com/data/icons/48-bubbles/48/29.Mac-128.png;strokeColor=#000000;fontSize=14;fontStyle=1;movable=0;resizable=0;rotatable=0;deletable=0;editable=0;locked=1;connectable=0;" vertex="1" parent="Wpa-RsL2ljYjHo5LuCvC-75">
          <mxGeometry width="128" height="128" as="geometry" />
        </mxCell>
        <mxCell id="Wpa-RsL2ljYjHo5LuCvC-72" value="Client GUI" style="text;html=1;align=center;verticalAlign=middle;resizable=0;points=[];autosize=1;strokeColor=none;fillColor=none;fontSize=14;fontStyle=1;movable=0;rotatable=0;deletable=0;editable=0;locked=1;connectable=0;" vertex="1" parent="Wpa-RsL2ljYjHo5LuCvC-75">
          <mxGeometry x="19" y="33" width="90" height="30" as="geometry" />
        </mxCell>
        <mxCell id="Wpa-RsL2ljYjHo5LuCvC-76" style="edgeStyle=orthogonalEdgeStyle;rounded=0;orthogonalLoop=1;jettySize=auto;html=1;entryX=1;entryY=0.5;entryDx=0;entryDy=0;fontSize=14;fontStyle=1" edge="1" parent="1" source="Wpa-RsL2ljYjHo5LuCvC-34" target="Wpa-RsL2ljYjHo5LuCvC-58">
          <mxGeometry relative="1" as="geometry" />
        </mxCell>
        <mxCell id="Wpa-RsL2ljYjHo5LuCvC-80" value="" style="endArrow=classic;html=1;rounded=0;fontSize=14;exitX=0.5;exitY=0;exitDx=0;exitDy=0;exitPerimeter=0;" edge="1" parent="1" source="Wpa-RsL2ljYjHo5LuCvC-36">
          <mxGeometry width="50" height="50" relative="1" as="geometry">
            <mxPoint x="890" y="420" as="sourcePoint" />
            <mxPoint x="1026" y="310" as="targetPoint" />
          </mxGeometry>
        </mxCell>
        <mxCell id="Wpa-RsL2ljYjHo5LuCvC-81" value="Store Signal" style="text;html=1;align=center;verticalAlign=middle;resizable=0;points=[];autosize=1;strokeColor=none;fillColor=none;rotation=-90;fontSize=14;fontStyle=1" vertex="1" parent="1">
          <mxGeometry x="580" y="110" width="110" height="30" as="geometry" />
        </mxCell>
      </root>
    </mxGraphModel>
  </diagram>
</mxfile>
